<svg xmlns="http://www.w3.org/2000/svg" viewBox="0 0 1024 566" width="1024" height="566" role="img" aria-labelledby="t d">
<title id="t">GROW – Day 4: Tulip bulbs in the middle of the garden</title>
<desc id="d">The first rain in days softens the dry meadow, and a tulip bulb is tucked into the damp earth to sleep until spring. Weather: Rain, rain 10.4 mm.</desc>
<style>@keyframes sw{0%,100%{transform:rotate(-.7deg)}50%{transform:rotate(.7deg)}}@keyframes sf{0%,100%{transform:rotate(-2.5deg)}50%{transform:rotate(2.5deg)}}@keyframes st{0%,100%{transform:rotate(-2.2deg)}50%{transform:rotate(1.4deg)}}.sw{animation:sw 6s ease-in-out infinite}.sf{animation-name:sf;animation-duration:4s}.storm .sw{animation:st 1.4s ease-in-out infinite}.d1{animation-delay:-1.5s}.d2{animation-delay:-3s}.d3{animation-delay:-4.5s}@keyframes rn{from{transform:translate(0,-60px)}to{transform:translate(-14px,70px)}}.rn{animation:rn .8s linear infinite}.rn.b{animation-delay:-.4s}@keyframes sn{from{transform:translate(0,-50px)}to{transform:translate(12px,60px)}}.sn{animation:sn 7s linear infinite}.sn.b{animation-delay:-3.5s}@keyframes cl{from{transform:translateX(-26px)}to{transform:translateX(26px)}}.cl{animation:cl 38s ease-in-out infinite alternate}@keyframes sh{0%,100%{opacity:.25}50%{opacity:.85}}.sh{animation:sh 3.2s ease-in-out infinite}@keyframes mk{0%,100%{transform:translateY(0)}50%{transform:translateY(-6px)}}.mk{animation:mk 1.4s ease-in-out infinite}@keyframes fl{0%,100%{opacity:.7}50%{opacity:1}}.fl{animation:fl 2.4s ease-in-out infinite}@keyframes bz{0%,100%{transform:translate(0,0)}33%{transform:translate(6px,-4px)}66%{transform:translate(-5px,3px)}}.bz{animation:bz 2s ease-in-out infinite}@keyframes lf{from{transform:translate(-40px,0)}to{transform:translate(60px,30px)}}.lf{animation:lf 2.6s linear infinite}@media (prefers-reduced-motion:reduce){*{animation:none!important}}</style>
<defs><linearGradient id="sky" x1="0" y1="0" x2="0" y2="1"><stop offset="0" stop-color="#71849a"/><stop offset="1" stop-color="#c2c7c6"/></linearGradient><radialGradient id="sun"><stop offset="0" stop-color="#fff" stop-opacity=".9"/><stop offset="1" stop-color="#fff" stop-opacity="0"/></radialGradient></defs><rect width="1024" height="470" fill="url(#sky)"/><g class="cl"><g fill="#808e9a"><circle cx="43.2" cy="39.8" r="34.5"/><circle cx="65" cy="41.5" r="29.7"/><circle cx="102" cy="35.1" r="48.1"/><circle cx="131.6" cy="40.5" r="32.6"/><circle cx="161.5" cy="38.2" r="39.1"/></g><path d="M13 51.9A86.8 22.4 0 1 0 186.7 51.9A86.8 22.4 0 1 0 13 51.9Z" fill="#808e9a"/><g fill="#9eabb6" transform="translate(-3 -4)"><circle cx="43.2" cy="39.8" r="34.5"/><circle cx="65" cy="41.5" r="29.7"/><circle cx="102" cy="35.1" r="48.1"/><circle cx="131.6" cy="40.5" r="32.6"/><circle cx="161.5" cy="38.2" r="39.1"/></g><g fill="#808e9a"><circle cx="178.6" cy="62.4" r="29.4"/><circle cx="207.4" cy="61.2" r="32.7"/><circle cx="233.7" cy="56.8" r="45.4"/><circle cx="266.3" cy="60.1" r="35.8"/><circle cx="294.5" cy="60.2" r="35.6"/></g><path d="M154.2 72.7A79.4 20.5 0 1 0 313 72.7A79.4 20.5 0 1 0 154.2 72.7Z" fill="#808e9a"/><g fill="#9eabb6" transform="translate(-3 -4)"><circle cx="178.6" cy="62.4" r="29.4"/><circle cx="207.4" cy="61.2" r="32.7"/><circle cx="233.7" cy="56.8" r="45.4"/><circle cx="266.3" cy="60.1" r="35.8"/><circle cx="294.5" cy="60.2" r="35.6"/></g><g fill="#808e9a"><circle cx="297.8" cy="73.5" r="35.2"/><circle cx="324.3" cy="75.2" r="30.3"/><circle cx="357.5" cy="66.2" r="56.1"/><circle cx="389.7" cy="74.5" r="32.2"/><circle cx="420.3" cy="73.3" r="35.7"/></g><path d="M268.7 85.8A86.2 22.2 0 1 0 441.1 85.8A86.2 22.2 0 1 0 268.7 85.8Z" fill="#808e9a"/><g fill="#9eabb6" transform="translate(-3 -4)"><circle cx="297.8" cy="73.5" r="35.2"/><circle cx="324.3" cy="75.2" r="30.3"/><circle cx="357.5" cy="66.2" r="56.1"/><circle cx="389.7" cy="74.5" r="32.2"/><circle cx="420.3" cy="73.3" r="35.7"/></g><g fill="#808e9a"><circle cx="364.2" cy="50.2" r="24.9"/><circle cx="386.5" cy="48.9" r="28.6"/><circle cx="418.8" cy="43.6" r="43.7"/><circle cx="436.9" cy="48.6" r="29.4"/><circle cx="471.5" cy="50.2" r="24.9"/></g><path d="M344 58.9A72.2 18.6 0 1 0 488.4 58.9A72.2 18.6 0 1 0 344 58.9Z" fill="#808e9a"/><g fill="#9eabb6" transform="translate(-3 -4)"><circle cx="364.2" cy="50.2" r="24.9"/><circle cx="386.5" cy="48.9" r="28.6"/><circle cx="418.8" cy="43.6" r="43.7"/><circle cx="436.9" cy="48.6" r="29.4"/><circle cx="471.5" cy="50.2" r="24.9"/></g><g fill="#808e9a"><circle cx="502.7" cy="86.6" r="44.9"/><circle cx="541.9" cy="88.9" r="38.2"/><circle cx="567.9" cy="79.4" r="65.4"/><circle cx="612.8" cy="87.5" r="42.2"/><circle cx="645.8" cy="90" r="35.1"/></g><path d="M472.7 102.3A100.1 25.8 0 1 0 672.8 102.3A100.1 25.8 0 1 0 472.7 102.3Z" fill="#808e9a"/><g fill="#9eabb6" transform="translate(-3 -4)"><circle cx="502.7" cy="86.6" r="44.9"/><circle cx="541.9" cy="88.9" r="38.2"/><circle cx="567.9" cy="79.4" r="65.4"/><circle cx="612.8" cy="87.5" r="42.2"/><circle cx="645.8" cy="90" r="35.1"/></g><g fill="#808e9a"><circle cx="626.4" cy="29.4" r="45.7"/><circle cx="672.3" cy="29.4" r="45.8"/><circle cx="700.5" cy="23.4" r="63"/><circle cx="746.5" cy="33.2" r="34.9"/><circle cx="777.9" cy="28.7" r="47.8"/></g><path d="M599.3 45.4A106.1 27.4 0 1 0 811.5 45.4A106.1 27.4 0 1 0 599.3 45.4Z" fill="#808e9a"/><g fill="#9eabb6" transform="translate(-3 -4)"><circle cx="626.4" cy="29.4" r="45.7"/><circle cx="672.3" cy="29.4" r="45.8"/><circle cx="700.5" cy="23.4" r="63"/><circle cx="746.5" cy="33.2" r="34.9"/><circle cx="777.9" cy="28.7" r="47.8"/></g><g fill="#808e9a"><circle cx="755.3" cy="38.1" r="45.6"/><circle cx="790.4" cy="37.9" r="46.1"/><circle cx="832.2" cy="31.1" r="65.7"/><circle cx="875.1" cy="39.6" r="41.3"/><circle cx="908.6" cy="38.1" r="45.6"/></g><path d="M723.7 54.1A108.4 28 0 1 0 940.5 54.1A108.4 28 0 1 0 723.7 54.1Z" fill="#808e9a"/><g fill="#9eabb6" transform="translate(-3 -4)"><circle cx="755.3" cy="38.1" r="45.6"/><circle cx="790.4" cy="37.9" r="46.1"/><circle cx="832.2" cy="31.1" r="65.7"/><circle cx="875.1" cy="39.6" r="41.3"/><circle cx="908.6" cy="38.1" r="45.6"/></g><g fill="#808e9a"><circle cx="854.4" cy="42.4" r="35"/><circle cx="890.5" cy="43.7" r="31.2"/><circle cx="923.7" cy="36.2" r="52.7"/><circle cx="954.1" cy="41.6" r="37.3"/><circle cx="989.4" cy="42.9" r="33.4"/></g><path d="M830.3 54.6A90.5 23.4 0 1 0 1011.4 54.6A90.5 23.4 0 1 0 830.3 54.6Z" fill="#808e9a"/><g fill="#9eabb6" transform="translate(-3 -4)"><circle cx="854.4" cy="42.4" r="35"/><circle cx="890.5" cy="43.7" r="31.2"/><circle cx="923.7" cy="36.2" r="52.7"/><circle cx="954.1" cy="41.6" r="37.3"/><circle cx="989.4" cy="42.9" r="33.4"/></g></g><path d="M0 300L0 277.4L32 279.9L64 281.4L96 281.3L128 279.6L160 276.5L192 272.4L224 268L256 263.8L288 260.4L320 257.9L352 256.4L384 255.6L416 254.9L448 254.1L480 252.7L512 250.7L544 248.3L576 245.9L608 244.2L640 243.5L672 244.3L704 246.6L736 250.3L768 254.9L800 259.7L832 264.1L864 267.6L896 269.9L928 271.2L960 271.7L992 271.9L1024 272.3L1024 340L0 340Z" fill="#c3b88a"/><path d="M0 330L0 288.5L32 288.7L64 289L96 288.9L128 288.6L160 288.7L192 289.9L224 292.6L256 297.1L288 302.5L320 308L352 312.3L384 314.8L416 315.1L448 313.7L480 311.5L512 309.2L544 307.4L576 306.1L608 304.7L640 302.5L672 299.2L704 294.8L736 290L768 285.9L800 283.5L832 283.3L864 285.3L896 288.9L928 293L960 296.7L992 299.5L1024 301.5L1024 360L0 360Z" fill="#a9a878"/><path d="M0 295.5L32 295.7L64 296L96 295.9L128 295.6L160 295.7L192 296.9L224 299.6L256 304.1L288 309.5L320 315L352 319.3L384 321.8L416 322.1L448 320.7L480 318.5L512 316.2L544 314.4L576 313.1L608 311.7L640 309.5L672 306.2L704 301.8L736 297L768 292.9L800 290.5L832 290.3L864 292.3L896 295.9L928 300L960 303.7L992 306.5L1024 308.5M0 302.5L32 302.7L64 303L96 302.9L128 302.6L160 302.7L192 303.9L224 306.6L256 311.1L288 316.5L320 322L352 326.3L384 328.8L416 329.1L448 327.7L480 325.5L512 323.2L544 321.4L576 320.1L608 318.7L640 316.5L672 313.2L704 308.8L736 304L768 299.9L800 297.5L832 297.3L864 299.3L896 302.9L928 307L960 310.7L992 313.5L1024 315.5M0 309.5L32 309.7L64 310L96 309.9L128 309.6L160 309.7L192 310.9L224 313.6L256 318.1L288 323.5L320 329L352 333.3L384 335.8L416 336.1L448 334.7L480 332.5L512 330.2L544 328.4L576 327.1L608 325.7L640 323.5L672 320.2L704 315.8L736 311L768 306.9L800 304.5L832 304.3L864 306.3L896 309.9L928 314L960 317.7L992 320.5L1024 322.5M0 316.5L32 316.7L64 317L96 316.9L128 316.6L160 316.7L192 317.9L224 320.6L256 325.1L288 330.5L320 336L352 340.3L384 342.8L416 343.1L448 341.7L480 339.5L512 337.2L544 335.4L576 334.1L608 332.7L640 330.5L672 327.2L704 322.8L736 318L768 313.9L800 311.5L832 311.3L864 313.3L896 316.9L928 321L960 324.7L992 327.5L1024 329.5" stroke="#899164" stroke-width="1.4" stroke-dasharray="2 5" fill="none"/>
<path d="M0 340L8 340L16 340L24 339.9L32 339.5L40 338.8L48 337.9L56 336.9L64 335.6L72 334.2L80 332.7L88 331.2L96 329.7L104 328.2L112 326.8L120 325.5L128 324.5L136 323.6L144 322.9L152 322.5L160 322.4L168 322.5L176 322.9L184 323.6L192 324.5L200 325.5L208 326.8L216 328.2L224 329.7L232 331.2L240 332.7L248 334.2L256 335.6L264 336.9L272 337.9L280 338.8L288 339.5L296 339.9L304 340L312 340L320 340L328 340L336 340L344 340L352 340L360 340L368 340L376 340L384 340L392 340L400 340L408 340L416 340L424 340L432 340L440 340L448 340L456 340L464 340L472 340L480 340L488 340L496 340L504 340L512 340L520 340L528 340L536 340L544 340L552 340L560 340L568 340L576 340L584 340L592 340L600 340L608 340.6L616 342.2L624 344.8L632 348.3L640 352.4L648 356.9L656 361.5L664 366L672 370.1L680 373.6L688 376.2L696 377.8L704 378.4L712 377.8L720 376.2L728 373.6L736 370.1L744 366L752 361.5L760 356.9L768 352.4L776 348.3L784 344.8L792 342.2L800 340.6L808 340L816 340L824 340L832 340L840 340L848 340L856 340L864 340L872 340L880 340L888 340L896 340L904 340L912 340L920 340L928 340L936 340L944 340L952 340L960 340L968 340L976 340L984 340L992 340L1000 340L1008 340L1016 340L1024 340L1024 392L1016 392L1008 392L1000 392L992 392L984 392L976 392L968 392L960 392L952 392L944 392L936 392L928 392L920 392L912 392L904 392L896 392L888 392L880 392L872 392L864 392L856 392L848 392L840 392L832 392L824 392L816 392L808 392L800 392.6L792 394.2L784 396.8L776 400.3L768 404.4L760 408.9L752 413.5L744 418L736 422.1L728 425.6L720 428.2L712 429.8L704 430.4L696 429.8L688 428.2L680 425.6L672 422.1L664 418L656 413.5L648 408.9L640 404.4L632 400.3L624 396.8L616 394.2L608 392.6L600 392L592 392L584 392L576 392L568 392L560 392L552 392L544 392L536 392L528 392L520 392L512 392L504 392L496 392L488 392L480 392L472 392L464 392L456 392L448 392L440 392L432 392L424 392L416 392L408 392L400 392L392 392L384 392L376 392L368 392L360 392L352 392L344 392L336 392L328 392L320 392L312 392L304 392L296 391.9L288 391.5L280 390.8L272 389.9L264 388.9L256 387.6L248 386.2L240 384.7L232 383.2L224 381.7L216 380.2L208 378.8L200 377.5L192 376.5L184 375.6L176 374.9L168 374.5L160 374.4L152 374.5L144 374.9L136 375.6L128 376.5L120 377.5L112 378.8L104 380.2L96 381.7L88 383.2L80 384.7L72 386.2L64 387.6L56 388.9L48 389.9L40 390.8L32 391.5L24 391.9L16 392L8 392L0 392Z" fill="#9ba851"/><path d="M358.9 358.1l1.4 -4.2M295.4 365.5l-0.8 -5.6M397 356.5l0.5 -6.2M941.8 385.1l-0.8 -5.2M560.2 341.1l-1 -3.7M455.8 379.4l0.3 -5.9M522.8 382.1l0.7 -4.3M365.6 386.8l0.9 -2.8M433.4 354.8l1.2 -4.2M395.8 368.1l-0.3 -3.3M414.5 381.7l-0.7 -4.2M888.4 390.9l0.8 -3M812.8 368.5l1.2 -2.4M811.7 350.2l0.6 -4.4M89.2 351.1l-1 -6.1M949 368.2l0.2 -4.1M1001.1 375.6l-1.1 -3.2M884.7 385.7l1 -4.4M423.8 391.4l-1.2 -5.1M133.8 360.8l1.3 -2.9M1006.2 370l0.5 -3M860 375.5l0.4 -5.2M830.1 341.5l1.4 -3.5M930 350.4l-0.9 -3.2M352 357l-0.8 -5.1M226 368.8l0.4 -2.4M828.4 352.5l0.6 -5.6M52.7 362.3l0 -2.8M44 387.1l-0.7 -4.6M193 333.3l1.5 -3.8M147.2 351.5l-0.7 -5.7M10 389.7l-1.3 -4.3M855.4 361.5l-1.1 -5.9M588 361.5l0.5 -5.6M147.5 370.9l-0.6 -5.7M894.3 374.1l0.5 -5.4M573.1 367.9l0.4 -3.9M204.4 330.2l-1.3 -2.9M85.4 373.9l-1.1 -5.7M199 352.6l-0.4 -3.9M240.3 345.8l0 -5.1M107.4 363.3l-0.3 -4M897.1 390.4l-0.1 -4.4M996.7 340.4l-0.9 -3.5M396.7 384l-0.3 -4.4M191.3 348.6l-0.5 -3.2M108.6 367.2l0.7 -5.4M360.3 362.2l1.5 -6.3M156 340l-0.6 -6.2M829.2 389.8l-1 -2.8M239.8 335.3l-1.2 -5.2M988.4 374.3l-0.1 -4.5M917.4 389.7l-0.3 -2.3M271 380.7l1.4 -5.1M324.9 341.5l0.1 -4.5M14.5 371.6l-0.5 -3.6M110.7 363.8l-1.5 -4.3M486.7 380.5l1.2 -5.9M287.7 368.3l1.4 -2.4M522 345.9l0.1 -4.7M56.3 364.5l-0.3 -2.9M283.3 389.9l-0.9 -4.3M299.3 348.8l-1.4 -2.5M843.4 345.2l-0.9 -5.8M271 365.7l-1 -3.5M827.7 345.7l1.2 -2.5M143 331l0 -4.5M810.1 367.6l0.8 -5.9M74.1 335l0.2 -4.5M310.5 366.1l1.2 -6.2M518.9 361.4l-1.4 -5.9M540.4 352.1l-0.7 -2.3M513.2 350.2l0.2 -5.6M499.1 390.1l-0.5 -5.5M1016.9 344.5l0.3 -3.6M983.8 385.9l-0.3 -5M73.9 347.7l-0.3 -5.8M353.6 370.1l-0.2 -5.2M357.7 390.2l1 -4.3M426.5 384.5l-0.3 -2.9M1018.1 383.2l-0.2 -6.2M59.7 380.5l0.3 -4.4M1014.4 349l1.5 -3.7M959.9 389.2l-0.9 -3.4M282.4 356.5l1.5 -2.5M16.3 346.8l1.5 -5.2M152.8 339.2l1 -5.3M163.8 332.8l0.4 -3.8M946.6 351.4l-0.2 -4.5M331.7 357.7l-1.2 -5.2M549.2 387.7l0.8 -6.1M333.7 377.1l-1.4 -5.3M69.3 338.2l1.4 -3.9M185.2 361.1l0.2 -4.1M240 346.8l-1.3 -3.1M584.7 388.1l0.3 -2.4M359.2 390.5l1.2 -6M516.3 390l-0.6 -5M563.9 388.9l-0.2 -2.4M588.6 385.5l-0.9 -4.7M110.2 371.1l-0.4 -4.7M978 365.3l-0.4 -3M263.1 367.4l0.3 -2.9M187.2 348.8l0 -5.9M341.5 348.8l0.7 -5.8M574.4 340.7l0.4 -3.6M374.9 369.9l-0.6 -5.1M15.4 369.2l-1.5 -2.7M811.4 386.2l-0.2 -5.2M267.2 374.3l0.4 -4.8M401.4 342.6l1 -3.4M906.1 388.3l-1.2 -4.5M182.6 349.8l0.7 -5.8M61.9 361.3l1.1 -3.3M335.5 366.8l0.6 -3.5M831.4 355l0 -3M398.8 365.9l-0.7 -4.9M945.3 346.5l-0.2 -4.2M142.1 333.2l-1 -5.7M450.1 363.6l-0.7 -2.4M926.8 384.1l0.8 -3.2M827.6 345.6l1.5 -4.9M1019.4 380.2l0 -4.1M26.1 363l-1 -3M361.4 387.7l1.2 -3.6M1013 351l-0.3 -2.6M507.8 391.5l0.1 -3.7M334.2 391.7l-0.4 -3.2M31.3 370l-0.4 -4.3M238.1 358.3l1.4 -4.6M31.7 345.6l-1 -3.6M377.6 380.1l-0.4 -4.7M936.8 362l0.1 -4M75.6 379.8l-0.8 -4.2M348.3 386.3l1.3 -2.5M266.1 385.3l1.2 -5.6M41.4 356.6l0.8 -3.6M519.5 378.5l-0.1 -2.6M348.1 357.9l-0.5 -3.3M896.7 341.1l-0.6 -2.9M454.6 341.4l-0.6 -3.8M977.2 349.6l-1.1 -4.1M43.9 368.1l-0.7 -3.2M388.2 361.9l0.4 -5.5M282 387.5l0.9 -2.4M560.3 369.7l-0.9 -4.5M299.2 346.3l-0.3 -3.9M930.5 387.4l-1.5 -4.2M817.2 374.4l-1.2 -2.5M348.9 361.2l0.1 -2.9M373.7 358.9l-0.6 -5.2M390.2 347.1l-0.4 -6.1M558.1 356.5l-1.1 -3M136.6 372.3l-0.3 -3.7M895 343l-1 -3M282.3 371.2l0.2 -5.2M486.1 368.7l1.1 -5.9M110 372l1.2 -6.1M559.6 382.4l-1.1 -3.9M403 381.2l-1.5 -5M388 382.7l-1.4 -4.6M907.4 352.4l1.1 -3.1M880.1 356.6l1 -3.9M392.7 363l-0.7 -3.2M203.5 337.8l1.5 -4.7M200.2 335l0.2 -4.7M934.1 343.7l-0.3 -3.8M422.7 340.2l0.7 -5.8M925 368l-1.3 -2.4M175.6 362.9l-0.2 -4.7M580 388.4l-1.2 -3.5M886 340.2l-1.5 -4.4M874.4 361.7l-0.1 -3M208.9 360.7l-0.7 -4M182.8 347.5l1.3 -2.4M163.9 345.3l-1.4 -3.2M260.2 363.5l0.5 -4.2M210.6 337.8l-0.6 -4.7M521.3 361.8l0.8 -2.3M299.8 351.9l-0.6 -5.1M902.3 386.2l-0.3 -3.1M84.9 346.9l-0.8 -3.4M366 368.4l0.8 -6M330.5 389.2l0.2 -4.4M589.2 370.2l-0.5 -4M539.7 358.9l-1.3 -3M957 374.4l-0.2 -5.3M925.3 366.3l-0.1 -4.9M339.3 359.7l1.2 -3.4M225 346.4l0.4 -5.4M134.5 326.5l-0.2 -4M471.2 364l0.9 -2.9M444.9 344.7l1.1 -4.3M228.5 336l0.6 -6M19 356.1l0.1 -5.1M1003.9 370.3l0.9 -2.8M389.9 348.9l-1.2 -6.2M303.3 389.3l1.1 -4.8M490.9 367.7l-1.1 -5.2M370.4 358.7l-0.6 -4.5M927.1 385.8l1.3 -5.5M927.5 381.6l0 -3.9M535.4 359.2l-0.1 -2.5M242.1 349l1.2 -4.6M394.4 376.8l-1.4 -5.1M163.3 341.4l-1 -5.3M100.3 330.7l1.5 -4.7M128 353.6l-1.2 -4.8M883 384.7l-1.5 -6.1M423.5 387.7l-0.9 -5.6M36.1 356.3l0.5 -5.3M1017.5 365.8l1.2 -5M491.7 369.9l-0.4 -4.5M947.3 341.4l-1.4 -2.4M927.5 390.8l-0.2 -4.4M29.3 377.5l-0.9 -4.4M104.7 375.6l0.6 -2.5M8.9 356.3l1.1 -2.8M893.8 385l1.4 -2.6M567.3 370.2l1.1 -4.2M911.5 369.2l1.1 -3.4M169.5 343l-0.3 -4.8M525.8 380.4l-1.5 -3.7M871.2 352.1l-0.4 -3.9M472.7 344l0.1 -4.3M836.9 388.3l-0.1 -5.8M1002.6 352.5l1.5 -3.5M960 363.3l1.4 -3.8M42 378.6l-0.4 -2.4M35.5 343.1l-0.6 -4.3M340.9 353.8l-0.4 -4.9M872.3 345.6l0 -4.2M305.5 366.8l-0.3 -2.6M573 366.6l-0.2 -2.4M354.9 381.1l-0.5 -5.5M855.3 361.9l-1 -5.7M344.3 389.7l0.1 -4.4M307.2 388.4l1.2 -5.8M895 383l-1.1 -3.7M281.9 356.6l0.1 -4.6M828.3 379.6l-1.3 -5.6M961.7 383.8l-0.8 -4.9M890.5 350.5l-0.2 -3.1M475.8 354.3l0.4 -4M224.5 338.4l-1.2 -3.5M312.4 378.5l-0.2 -3.1M572.2 371l0.8 -4.1M384.5 358.1l-0.8 -3.2M954.5 365.2l-0.8 -3.1M1023.8 351.6l-1.1 -2.3M280.4 368.7l-0.5 -5.6M417 369.6l1.4 -5.2M574.8 374.5l-0.4 -3.2M581.9 353.5l0.5 -2.7M822.9 361l-0.8 -2.4M589.1 383.5l1.4 -3.8M120.3 337l-0.8 -4.5M36.3 373.5l-0.9 -4.4M299.3 369l-0.4 -2.8M373.1 391l1.2 -5M181 329.9l-1.1 -3.1M934.4 379.1l0.1 -3.9M166.9 357.1l-0.5 -4.7M254.7 382.5l-1.2 -2.5" stroke="#728c3f" stroke-width="1.2" stroke-linecap="round"/><path d="M604.8 340.2L608.8 340.7L612.8 341.4L616.8 342.4L620.8 343.7L624.8 345.1L628.8 346.8L632.8 348.7L636.8 350.7L640.8 352.8L644.8 355.1L648.8 357.3L652.8 359.7L656.8 362L660.8 364.2L664.8 366.4L668.8 368.5L672.8 370.5L676.8 372.3L680.8 373.9L684.8 375.3L688.8 376.4L692.8 377.3L696.8 377.9L700.8 378.3L704.8 378.4L708.8 378.2L712.8 377.7L716.8 377L720.8 376L724.8 374.7L728.8 373.3L732.8 371.6L736.8 369.7L740.8 367.7L744.8 365.6L748.8 363.3L752.8 361.1L756.8 358.7L760.8 356.4L764.8 354.2L768.8 352L772.8 349.9L776.8 347.9L780.8 346.1L784.8 344.5L788.8 343.1L792.8 342L796.8 341.1L800.8 340.5L800.8 392.5L796.8 393.1L792.8 394L788.8 395.1L784.8 396.5L780.8 398.1L776.8 399.9L772.8 401.9L768.8 404L764.8 406.2L760.8 408.4L756.8 410.7L752.8 413.1L748.8 415.3L744.8 417.6L740.8 419.7L736.8 421.7L732.8 423.6L728.8 425.3L724.8 426.7L720.8 428L716.8 429L712.8 429.7L708.8 430.2L704.8 430.4L700.8 430.3L696.8 429.9L692.8 429.3L688.8 428.4L684.8 427.3L680.8 425.9L676.8 424.3L672.8 422.5L668.8 420.5L664.8 418.4L660.8 416.2L656.8 414L652.8 411.7L648.8 409.3L644.8 407.1L640.8 404.8L636.8 402.7L632.8 400.7L628.8 398.8L624.8 397.1L620.8 395.7L616.8 394.4L612.8 393.4L608.8 392.7L604.8 392.2Z" fill="#e2cf9b"/><path d="M707.2 378.3L711.2 377.9L715.2 377.3L719.2 376.4L723.2 375.3L727.2 373.9L731.2 372.3L735.2 370.5L739.2 368.5L743.2 366.4L747.2 364.2L751.2 362L755.2 359.7L759.2 357.3L763.2 355.1L767.2 352.8L771.2 350.7L775.2 348.7L779.2 346.8L783.2 345.1L787.2 343.7L791.2 342.4L795.2 341.4L799.2 340.7L803.2 340.2L803.2 392.2L799.2 392.7L795.2 393.4L791.2 394.4L787.2 395.7L783.2 397.1L779.2 398.8L775.2 400.7L771.2 402.7L767.2 404.8L763.2 407.1L759.2 409.3L755.2 411.7L751.2 414L747.2 416.2L743.2 418.4L739.2 420.5L735.2 422.5L731.2 424.3L727.2 425.9L723.2 427.3L719.2 428.4L715.2 429.3L711.2 429.9L707.2 430.3Z" fill="#6b4a2a" fill-opacity=".16"/><path d="M671.6 369.9L736.4 369.9L736.4 421.9L671.6 421.9Z" fill="#6fb0d6"/><path class="sh" d="M678 377.7h19.4M709.9 390.7h19.4M696.2 403.7h19.4M682.6 416.7h19.4" stroke="#bfe3f2" stroke-width="1.6" stroke-linecap="round"/>
<g><g class="sw sf d2" style="transform-origin:136px 332.7px"><path d="M136.1 329.9A0.6 0.5 -84.2 1 0 136.2 328.7A0.6 0.5 -84.2 1 0 136.1 329.9ZM136.2 328.4A0.6 0.5 -87.4 1 0 136.3 327.2A0.6 0.5 -87.4 1 0 136.2 328.4ZM136.6 329A0.6 0.5 -79.7 1 0 136.8 327.8A0.6 0.5 -79.7 1 0 136.6 329ZM135.8 329A0.6 0.5 -94.3 1 0 135.7 327.8A0.6 0.5 -94.3 1 0 135.8 329ZM137.6 329.2A0.6 0.5 -65.7 1 0 138.1 328.1A0.6 0.5 -65.7 1 0 137.6 329.2ZM136.3 330.3A0.6 0.5 -81.2 1 0 136.5 329.1A0.6 0.5 -81.2 1 0 136.3 330.3ZM136.4 329.1A0.6 0.5 -85 1 0 136.5 327.9A0.6 0.5 -85 1 0 136.4 329.1ZM135.2 328.3A0.6 0.5 -102.8 1 0 134.9 327.2A0.6 0.5 -102.8 1 0 135.2 328.3Z" fill="#798d77"/><path d="M136 332.7L136 331.1M136 331.1L136.2 329.5M136.2 329.5L136.2 328.1M136.2 328.1L136.3 326.9M136 332.7L135.7 331.1M135.7 331.1L135.3 329.5M135.3 329.5L135 328.1M135 328.1L134.7 326.9M136 332.7L136.6 331.1M136.6 331.1L137.3 329.6M137.3 329.6L137.8 328.2M137.8 328.2L138.3 327.1M136 332.7L135.6 331.2M135.6 331.2L135.2 329.8M135.2 329.8L134.8 328.4M134.8 328.4L134.4 327.3M136 332.7L136 330.9M136 330.9L136 329.2M136 329.2L136 327.6M136 327.6L136 326.3M136 332.7L136.3 331.2M136.3 331.2L136.4 329.9M136.4 329.9L136.7 328.6M136.7 328.6L136.8 327.6M136 332.7L135.8 331.1M135.8 331.1L135.7 329.6M135.7 329.6L135.5 328.2M135.5 328.2L135.3 327.1M136 332.7L136.4 331.1M136.4 331.1L136.8 329.6M136.8 329.6L137.2 328.2M137.2 328.2L137.5 327M136 332.7L135.9 331.3M135.9 331.3L135.8 329.9M135.8 329.9L135.8 328.7M135.8 328.7L135.6 327.6M136 332.7L135.7 331.1M135.7 331.1L135.6 329.7M135.6 329.7L135.5 328.3M135.5 328.3L135.4 327.1M136 332.7L136.6 331.3M136.6 331.3L137.2 330.1M137.2 330.1L137.7 328.8M137.7 328.8L138.2 327.9M136 332.7L135.5 330.9M135.5 330.9L135 329.3M135 329.3L134.5 327.7M134.5 327.7L134.1 326.5M136 332.7L136.3 331.3M136.3 331.3L136.6 329.9M136.6 329.9L137 328.6M137 328.6L137.4 327.6M136 332.7L136.1 331.3M136.1 331.3L136.3 330M136.3 330L136.4 328.7M136.4 328.7L136.5 327.7M136 332.7L135.3 331.3M135.3 331.3L134.7 330M134.7 330L134.1 328.7M134.1 328.7L133.7 327.7M136 332.7L136.8 331.4M136.8 331.4L137.6 330.3M137.6 330.3L138.4 329.2M138.4 329.2L139 328.3M136 332.7L135.7 331M135.7 331L135.4 329.5M135.4 329.5L135.1 328M135.1 328L134.8 326.8" stroke="#8c9676" stroke-width="0.5" stroke-linecap="round" fill="none"/><path d="M136 331.4A0.6 0.5 -90 1 0 136 330.2A0.6 0.5 -90 1 0 136 331.4ZM135.1 328.4A0.6 0.5 -103.5 1 0 134.8 327.2A0.6 0.5 -103.5 1 0 135.1 328.4ZM137.1 330A0.6 0.5 -67.8 1 0 137.6 328.9A0.6 0.5 -67.8 1 0 137.1 330ZM134.9 328.7A0.6 0.5 -107.4 1 0 134.5 327.6A0.6 0.5 -107.4 1 0 134.9 328.7ZM136.2 331.6A0.6 0.5 -79.4 1 0 136.4 330.4A0.6 0.5 -79.4 1 0 136.2 331.6ZM136.4 330.2A0.6 0.5 -82.8 1 0 136.5 329.1A0.6 0.5 -82.8 1 0 136.4 330.2ZM136.7 329.9A0.6 0.5 -75.1 1 0 137 328.8A0.6 0.5 -75.1 1 0 136.7 329.9ZM135.9 331.6A0.6 0.5 -95.8 1 0 135.8 330.4A0.6 0.5 -95.8 1 0 135.9 331.6ZM136.5 331.7A0.6 0.5 -64.4 1 0 137 330.6A0.6 0.5 -64.4 1 0 136.5 331.7ZM134.6 328.1A0.6 0.5 -105.9 1 0 134.3 326.9A0.6 0.5 -105.9 1 0 134.6 328.1ZM136.9 329A0.6 0.5 -72.7 1 0 137.3 327.8A0.6 0.5 -72.7 1 0 136.9 329ZM134.8 330.3A0.6 0.5 -114.3 1 0 134.3 329.2A0.6 0.5 -114.3 1 0 134.8 330.3ZM136.6 331.7A0.6 0.5 -55.9 1 0 137.3 330.8A0.6 0.5 -55.9 1 0 136.6 331.7ZM135.8 331.4A0.6 0.5 -100.6 1 0 135.5 330.2A0.6 0.5 -100.6 1 0 135.8 331.4ZM135.5 329.8A0.6 0.5 -99.8 1 0 135.3 328.6A0.6 0.5 -99.8 1 0 135.5 329.8Z" fill="#95aa90"/><path d="M135.8 331.4A0.6 0.5 -101.1 1 0 135.5 330.2A0.6 0.5 -101.1 1 0 135.8 331.4ZM137.7 328.6A0.6 0.5 -68 1 0 138.1 327.5A0.6 0.5 -68 1 0 137.7 328.6ZM136 329.6A0.6 0.5 -92.1 1 0 135.9 328.4A0.6 0.5 -92.1 1 0 136 329.6ZM136 327.9A0.6 0.5 -87.8 1 0 136.1 326.7A0.6 0.5 -87.8 1 0 136 327.9ZM135.5 328.6A0.6 0.5 -97.2 1 0 135.4 327.4A0.6 0.5 -97.2 1 0 135.5 328.6ZM136.3 331.4A0.6 0.5 -76.5 1 0 136.6 330.3A0.6 0.5 -76.5 1 0 136.3 331.4ZM135.8 330.3A0.6 0.5 -90.4 1 0 135.8 329.1A0.6 0.5 -90.4 1 0 135.8 330.3ZM135.6 330A0.6 0.5 -96.4 1 0 135.5 328.8A0.6 0.5 -96.4 1 0 135.6 330ZM137.1 330.4A0.6 0.5 -66.4 1 0 137.5 329.3A0.6 0.5 -66.4 1 0 137.1 330.4ZM135.6 331.3A0.6 0.5 -106.9 1 0 135.2 330.1A0.6 0.5 -106.9 1 0 135.6 331.3ZM136.5 330.3A0.6 0.5 -76.7 1 0 136.8 329.1A0.6 0.5 -76.7 1 0 136.5 330.3ZM135.4 331.6A0.6 0.5 -117.1 1 0 134.9 330.5A0.6 0.5 -117.1 1 0 135.4 331.6ZM137.4 330.6A0.6 0.5 -55.4 1 0 138.1 329.6A0.6 0.5 -55.4 1 0 137.4 330.6Z" fill="#a6b9a0"/><path d="M135.4 329.9A0.6 0.5 -102.8 1 0 135.1 328.7A0.6 0.5 -102.8 1 0 135.4 329.9ZM136.5 331.4A0.6 0.5 -67.5 1 0 137 330.3A0.6 0.5 -67.5 1 0 136.5 331.4ZM135.7 331.5A0.6 0.5 -105 1 0 135.4 330.4A0.6 0.5 -105 1 0 135.7 331.5ZM135.3 330.1A0.6 0.5 -105.5 1 0 135 328.9A0.6 0.5 -105.5 1 0 135.3 330.1ZM136 331.2A0.6 0.5 -88.8 1 0 136.1 330A0.6 0.5 -88.8 1 0 136 331.2ZM135.9 331.5A0.6 0.5 -96 1 0 135.7 330.3A0.6 0.5 -96 1 0 135.9 331.5ZM135.7 330A0.6 0.5 -96.4 1 0 135.6 328.8A0.6 0.5 -96.4 1 0 135.7 330ZM137.1 328.5A0.6 0.5 -75.5 1 0 137.4 327.3A0.6 0.5 -75.5 1 0 137.1 328.5ZM135.8 331.5A0.6 0.5 -99.9 1 0 135.6 330.3A0.6 0.5 -99.9 1 0 135.8 331.5ZM135.5 328.6A0.6 0.5 -92.8 1 0 135.5 327.4A0.6 0.5 -92.8 1 0 135.5 328.6ZM135.1 329.6A0.6 0.5 -106.9 1 0 134.7 328.5A0.6 0.5 -106.9 1 0 135.1 329.6ZM136.2 331.6A0.6 0.5 -77.8 1 0 136.5 330.4A0.6 0.5 -77.8 1 0 136.2 331.6ZM136.1 331.6A0.6 0.5 -84.8 1 0 136.2 330.5A0.6 0.5 -84.8 1 0 136.1 331.6ZM134.3 329A0.6 0.5 -114.7 1 0 133.8 328A0.6 0.5 -114.7 1 0 134.3 329ZM138.2 329.5A0.6 0.5 -54.8 1 0 138.9 328.5A0.6 0.5 -54.8 1 0 138.2 329.5Z" fill="#889e84"/></g><g class="sw d3" style="transform-origin:424px 349.1px"><path d="M420.3 323.7A0.9 0.8 -118.7 1 0 419.5 322.1A0.9 0.8 -118.7 1 0 420.3 323.7Z" fill="#b48e51"/><path d="M424 349.1L424 337" stroke="#6f5e50" stroke-width="2" stroke-linecap="round" fill="none"/><path d="M424 337L424 330.4" stroke="#6f5e50" stroke-width="1.5" stroke-linecap="round" fill="none"/><path d="M424 330.4L423 328.7M424 330.4L424.5 327.8" stroke="#6f5e50" stroke-width="1" stroke-linecap="round" fill="none"/><path d="M425.8 320A0.9 0.8 -80 1 0 426.1 318.3A0.9 0.8 -80 1 0 425.8 320Z" fill="#c2864d"/></g></g>
<path d="M0 392L4 392L8 392L12 392L16 392L20 392L24 391.9L28 391.7L32 391.5L36 391.2L40 390.8L44 390.4L48 389.9L52 389.4L56 388.9L60 388.2L64 387.6L68 386.9L72 386.2L76 385.5L80 384.7L84 384L88 383.2L92 382.4L96 381.7L100 380.9L104 380.2L108 379.5L112 378.8L116 378.2L120 377.5L124 377L128 376.5L132 376L136 375.6L140 375.2L144 374.9L148 374.7L152 374.5L156 374.4L160 374.4L164 374.4L168 374.5L172 374.7L176 374.9L180 375.2L184 375.6L188 376L192 376.5L196 377L200 377.5L204 378.2L208 378.8L212 379.5L216 380.2L220 380.9L224 381.7L228 382.4L232 383.2L236 384L240 384.7L244 385.5L248 386.2L252 386.9L256 387.6L260 388.2L264 388.9L268 389.4L272 389.9L276 390.4L280 390.8L284 391.2L288 391.5L292 391.7L296 391.9L300 392L304 392L308 392L312 392L316 392L320 392L324 392L328 392L332 392L336 392L340 392L344 392L348 392L352 392L356 392L360 392L364 392L368 392L372 392L376 392L380 392L384 392L388 392L392 392L396 392L400 392L404 392L408 392L412 392L416 392L420 392L424 392L428 392L432 392L436 392L440 392L444 392L448 392L452 392L456 392L460 392L464 392L468 392L472 392L476 392L480 392L484 392L488 392L492 392L496 392L500 392L504 392L508 392L512 392L516 392L520 392L524 392L528 392L532 392L536 392L540 392L544 392L548 392L552 392L556 392L560 392L564 392L568 392L572 392L576 392L580 392L584 392L588 392L592 392L596 392L600 392L604 392.1L608 392.6L612 393.2L616 394.2L620 395.4L624 396.8L628 398.5L632 400.3L636 402.3L640 404.4L644 406.6L648 408.9L652 411.2L656 413.5L660 415.8L664 418L668 420.1L672 422.1L676 423.9L680 425.6L684 427L688 428.2L692 429.2L696 429.8L700 430.3L704 430.4L708 430.3L712 429.8L716 429.2L720 428.2L724 427L728 425.6L732 423.9L736 422.1L740 420.1L744 418L748 415.8L752 413.5L756 411.2L760 408.9L764 406.6L768 404.4L772 402.3L776 400.3L780 398.5L784 396.8L788 395.4L792 394.2L796 393.2L800 392.6L804 392.1L808 392L812 392L816 392L820 392L824 392L828 392L832 392L836 392L840 392L844 392L848 392L852 392L856 392L860 392L864 392L868 392L872 392L876 392L880 392L884 392L888 392L892 392L896 392L900 392L904 392L908 392L912 392L916 392L920 392L924 392L928 392L932 392L936 392L940 392L944 392L948 392L952 392L956 392L960 392L964 392L968 392L972 392L976 392L980 392L984 392L988 392L992 392L996 392L1000 392L1004 392L1008 392L1012 392L1016 392L1020 392L1024 392L1024 470L0 470Z" fill="#80624a"/><path d="M0 392L4 392L8 392L12 392L16 392L20 392L24 391.9L28 391.7L32 391.5L36 391.2L40 390.8L44 390.4L48 389.9L52 389.4L56 388.9L60 388.2L64 387.6L68 386.9L72 386.2L76 385.5L80 384.7L84 384L88 383.2L92 382.4L96 381.7L100 380.9L104 380.2L108 379.5L112 378.8L116 378.2L120 377.5L124 377L128 376.5L132 376L136 375.6L140 375.2L144 374.9L148 374.7L152 374.5L156 374.4L160 374.4L164 374.4L168 374.5L172 374.7L176 374.9L180 375.2L184 375.6L188 376L192 376.5L196 377L200 377.5L204 378.2L208 378.8L212 379.5L216 380.2L220 380.9L224 381.7L228 382.4L232 383.2L236 384L240 384.7L244 385.5L248 386.2L252 386.9L256 387.6L260 388.2L264 388.9L268 389.4L272 389.9L276 390.4L280 390.8L284 391.2L288 391.5L292 391.7L296 391.9L300 392L304 392L308 392L312 392L316 392L320 392L324 392L328 392L332 392L336 392L340 392L344 392L348 392L352 392L356 392L360 392L364 392L368 392L372 392L376 392L380 392L384 392L388 392L392 392L396 392L400 392L404 392L408 392L412 392L416 392L420 392L424 392L428 392L432 392L436 392L440 392L444 392L448 392L452 392L456 392L460 392L464 392L468 392L472 392L476 392L480 392L484 392L488 392L492 392L496 392L500 392L504 392L508 392L512 392L516 392L520 392L524 392L528 392L532 392L536 392L540 392L544 392L548 392L552 392L556 392L560 392L564 392L568 392L572 392L576 392L580 392L584 392L588 392L592 392L596 392L600 392L604 392.1L608 392.6L612 393.2L616 394.2L620 395.4L624 396.8L628 398.5L632 400.3L636 402.3L640 404.4L644 406.6L648 408.9L652 411.2L656 413.5L660 415.8L664 418L668 420.1L672 422.1L676 423.9L680 425.6L684 427L688 428.2L692 429.2L696 429.8L700 430.3L704 430.4L708 430.3L712 429.8L716 429.2L720 428.2L724 427L728 425.6L732 423.9L736 422.1L740 420.1L744 418L748 415.8L752 413.5L756 411.2L760 408.9L764 406.6L768 404.4L772 402.3L776 400.3L780 398.5L784 396.8L788 395.4L792 394.2L796 393.2L800 392.6L804 392.1L808 392L812 392L816 392L820 392L824 392L828 392L832 392L836 392L840 392L844 392L848 392L852 392L856 392L860 392L864 392L868 392L872 392L876 392L880 392L884 392L888 392L892 392L896 392L900 392L904 392L908 392L912 392L916 392L920 392L924 392L928 392L932 392L936 392L940 392L944 392L948 392L952 392L956 392L960 392L964 392L968 392L972 392L976 392L980 392L984 392L988 392L992 392L996 392L1000 392L1004 392L1008 392L1012 392L1016 392L1020 392L1024 392L1024 444L1020 444L1016 444L1012 444L1008 444L1004 444L1000 444L996 444L992 444L988 444L984 444L980 444L976 444L972 444L968 444L964 444L960 444L956 444L952 444L948 444L944 444L940 444L936 444L932 444L928 444L924 444L920 444L916 444L912 444L908 444L904 444L900 444L896 444L892 444L888 444L884 444L880 444L876 444L872 444L868 444L864 444L860 444L856 444L852 444L848 444L844 444L840 444L836 444L832 444L828 444L824 444L820 444L816 444L812 444L808 444L804 444.1L800 444.6L796 445.2L792 446.2L788 447.4L784 448.8L780 450.5L776 452.3L772 454.3L768 456.4L764 458.6L760 460.9L756 463.2L752 465.5L748 467.8L744 470L740 472.1L736 474.1L732 475.9L728 477.6L724 479L720 480.2L716 481.2L712 481.8L708 482.3L704 482.4L700 482.3L696 481.8L692 481.2L688 480.2L684 479L680 477.6L676 475.9L672 474.1L668 472.1L664 470L660 467.8L656 465.5L652 463.2L648 460.9L644 458.6L640 456.4L636 454.3L632 452.3L628 450.5L624 448.8L620 447.4L616 446.2L612 445.2L608 444.6L604 444.1L600 444L596 444L592 444L588 444L584 444L580 444L576 444L572 444L568 444L564 444L560 444L556 444L552 444L548 444L544 444L540 444L536 444L532 444L528 444L524 444L520 444L516 444L512 444L508 444L504 444L500 444L496 444L492 444L488 444L484 444L480 444L476 444L472 444L468 444L464 444L460 444L456 444L452 444L448 444L444 444L440 444L436 444L432 444L428 444L424 444L420 444L416 444L412 444L408 444L404 444L400 444L396 444L392 444L388 444L384 444L380 444L376 444L372 444L368 444L364 444L360 444L356 444L352 444L348 444L344 444L340 444L336 444L332 444L328 444L324 444L320 444L316 444L312 444L308 444L304 444L300 444L296 443.9L292 443.7L288 443.5L284 443.2L280 442.8L276 442.4L272 441.9L268 441.4L264 440.9L260 440.2L256 439.6L252 438.9L248 438.2L244 437.5L240 436.7L236 436L232 435.2L228 434.4L224 433.7L220 432.9L216 432.2L212 431.5L208 430.8L204 430.2L200 429.5L196 429L192 428.5L188 428L184 427.6L180 427.2L176 426.9L172 426.7L168 426.5L164 426.4L160 426.4L156 426.4L152 426.5L148 426.7L144 426.9L140 427.2L136 427.6L132 428L128 428.5L124 429L120 429.5L116 430.2L112 430.8L108 431.5L104 432.2L100 432.9L96 433.7L92 434.4L88 435.2L84 436L80 436.7L76 437.5L72 438.2L68 438.9L64 439.6L60 440.2L56 440.9L52 441.4L48 441.9L44 442.4L40 442.8L36 443.2L32 443.5L28 443.7L24 443.9L20 444L16 444L12 444L8 444L4 444L0 444Z" fill="#6f5039"/><path d="M0 392L4 392L8 392L12 392L16 392L20 392L24 391.9L28 391.7L32 391.5L36 391.2L40 390.8L44 390.4L48 389.9L52 389.4L56 388.9L60 388.2L64 387.6L68 386.9L72 386.2L76 385.5L80 384.7L84 384L88 383.2L92 382.4L96 381.7L100 380.9L104 380.2L108 379.5L112 378.8L116 378.2L120 377.5L124 377L128 376.5L132 376L136 375.6L140 375.2L144 374.9L148 374.7L152 374.5L156 374.4L160 374.4L164 374.4L168 374.5L172 374.7L176 374.9L180 375.2L184 375.6L188 376L192 376.5L196 377L200 377.5L204 378.2L208 378.8L212 379.5L216 380.2L220 380.9L224 381.7L228 382.4L232 383.2L236 384L240 384.7L244 385.5L248 386.2L252 386.9L256 387.6L260 388.2L264 388.9L268 389.4L272 389.9L276 390.4L280 390.8L284 391.2L288 391.5L292 391.7L296 391.9L300 392L304 392L308 392L312 392L316 392L320 392L324 392L328 392L332 392L336 392L340 392L344 392L348 392L352 392L356 392L360 392L364 392L368 392L372 392L376 392L380 392L384 392L388 392L392 392L396 392L400 392L404 392L408 392L412 392L416 392L420 392L424 392L428 392L432 392L436 392L440 392L444 392L448 392L452 392L456 392L460 392L464 392L468 392L472 392L476 392L480 392L484 392L488 392L492 392L496 392L500 392L504 392L508 392L512 392L516 392L520 392L524 392L528 392L532 392L536 392L540 392L544 392L548 392L552 392L556 392L560 392L564 392L568 392L572 392L576 392L580 392L584 392L588 392L592 392L596 392L600 392L604 392.1L608 392.6L612 393.2L616 394.2L620 395.4L624 396.8L628 398.5L632 400.3L636 402.3L640 404.4L644 406.6L648 408.9L652 411.2L656 413.5L660 415.8L664 418L668 420.1L672 422.1L676 423.9L680 425.6L684 427L688 428.2L692 429.2L696 429.8L700 430.3L704 430.4L708 430.3L712 429.8L716 429.2L720 428.2L724 427L728 425.6L732 423.9L736 422.1L740 420.1L744 418L748 415.8L752 413.5L756 411.2L760 408.9L764 406.6L768 404.4L772 402.3L776 400.3L780 398.5L784 396.8L788 395.4L792 394.2L796 393.2L800 392.6L804 392.1L808 392L812 392L816 392L820 392L824 392L828 392L832 392L836 392L840 392L844 392L848 392L852 392L856 392L860 392L864 392L868 392L872 392L876 392L880 392L884 392L888 392L892 392L896 392L900 392L904 392L908 392L912 392L916 392L920 392L924 392L928 392L932 392L936 392L940 392L944 392L948 392L952 392L956 392L960 392L964 392L968 392L972 392L976 392L980 392L984 392L988 392L992 392L996 392L1000 392L1004 392L1008 392L1012 392L1016 392L1020 392L1024 392L1024 408L1020 408L1016 408L1012 408L1008 408L1004 408L1000 408L996 408L992 408L988 408L984 408L980 408L976 408L972 408L968 408L964 408L960 408L956 408L952 408L948 408L944 408L940 408L936 408L932 408L928 408L924 408L920 408L916 408L912 408L908 408L904 408L900 408L896 408L892 408L888 408L884 408L880 408L876 408L872 408L868 408L864 408L860 408L856 408L852 408L848 408L844 408L840 408L836 408L832 408L828 408L824 408L820 408L816 408L812 408L808 408L804 408.1L800 408.6L796 409.2L792 410.2L788 411.4L784 412.8L780 414.5L776 416.3L772 418.3L768 420.4L764 422.6L760 424.9L756 427.2L752 429.5L748 431.8L744 434L740 436.1L736 438.1L732 439.9L728 441.6L724 443L720 444.2L716 445.2L712 445.8L708 446.3L704 446.4L700 446.3L696 445.8L692 445.2L688 444.2L684 443L680 441.6L676 439.9L672 438.1L668 436.1L664 434L660 431.8L656 429.5L652 427.2L648 424.9L644 422.6L640 420.4L636 418.3L632 416.3L628 414.5L624 412.8L620 411.4L616 410.2L612 409.2L608 408.6L604 408.1L600 408L596 408L592 408L588 408L584 408L580 408L576 408L572 408L568 408L564 408L560 408L556 408L552 408L548 408L544 408L540 408L536 408L532 408L528 408L524 408L520 408L516 408L512 408L508 408L504 408L500 408L496 408L492 408L488 408L484 408L480 408L476 408L472 408L468 408L464 408L460 408L456 408L452 408L448 408L444 408L440 408L436 408L432 408L428 408L424 408L420 408L416 408L412 408L408 408L404 408L400 408L396 408L392 408L388 408L384 408L380 408L376 408L372 408L368 408L364 408L360 408L356 408L352 408L348 408L344 408L340 408L336 408L332 408L328 408L324 408L320 408L316 408L312 408L308 408L304 408L300 408L296 407.9L292 407.7L288 407.5L284 407.2L280 406.8L276 406.4L272 405.9L268 405.4L264 404.9L260 404.2L256 403.6L252 402.9L248 402.2L244 401.5L240 400.7L236 400L232 399.2L228 398.4L224 397.7L220 396.9L216 396.2L212 395.5L208 394.8L204 394.2L200 393.5L196 393L192 392.5L188 392L184 391.6L180 391.2L176 390.9L172 390.7L168 390.5L164 390.4L160 390.4L156 390.4L152 390.5L148 390.7L144 390.9L140 391.2L136 391.6L132 392L128 392.5L124 393L120 393.5L116 394.2L112 394.8L108 395.5L104 396.2L100 396.9L96 397.7L92 398.4L88 399.2L84 400L80 400.7L76 401.5L72 402.2L68 402.9L64 403.6L60 404.2L56 404.9L52 405.4L48 405.9L44 406.4L40 406.8L36 407.2L32 407.5L28 407.7L24 407.9L20 408L16 408L12 408L8 408L4 408L0 408Z" fill="#5b4331"/><path d="M0 392L4 392L8 392L12 392L16 392L20 392L24 391.9L28 391.7L32 391.5L36 391.2L40 390.8L44 390.4L48 389.9L52 389.4L56 388.9L60 388.2L64 387.6L68 386.9L72 386.2L76 385.5L80 384.7L84 384L88 383.2L92 382.4L96 381.7L100 380.9L104 380.2L108 379.5L112 378.8L116 378.2L120 377.5L124 377L128 376.5L132 376L136 375.6L140 375.2L144 374.9L148 374.7L152 374.5L156 374.4L160 374.4L164 374.4L168 374.5L172 374.7L176 374.9L180 375.2L184 375.6L188 376L192 376.5L196 377L200 377.5L204 378.2L208 378.8L212 379.5L216 380.2L220 380.9L224 381.7L228 382.4L232 383.2L236 384L240 384.7L244 385.5L248 386.2L252 386.9L256 387.6L260 388.2L264 388.9L268 389.4L272 389.9L276 390.4L280 390.8L284 391.2L288 391.5L292 391.7L296 391.9L300 392L304 392L308 392L312 392L316 392L320 392L324 392L328 392L332 392L336 392L340 392L344 392L348 392L352 392L356 392L360 392L364 392L368 392L372 392L376 392L380 392L384 392L388 392L392 392L396 392L400 392L404 392L408 392L412 392L416 392L420 392L424 392L428 392L432 392L436 392L440 392L444 392L448 392L452 392L456 392L460 392L464 392L468 392L472 392L476 392L480 392L484 392L488 392L492 392L496 392L500 392L504 392L508 392L512 392L516 392L520 392L524 392L528 392L532 392L536 392L540 392L544 392L548 392L552 392L556 392L560 392L564 392L568 392L572 392L576 392L580 392L584 392L588 392L592 392L596 392L600 392L604 392.1L608 392.6L612 393.2L616 394.2L620 395.4L624 396.8L628 398.5L632 400.3L636 402.3L640 404.4L644 406.6L648 408.9L652 411.2L656 413.5L660 415.8L664 418L668 420.1L672 422.1L676 423.9L680 425.6L684 427L688 428.2L692 429.2L696 429.8L700 430.3L704 430.4L708 430.3L712 429.8L716 429.2L720 428.2L724 427L728 425.6L732 423.9L736 422.1L740 420.1L744 418L748 415.8L752 413.5L756 411.2L760 408.9L764 406.6L768 404.4L772 402.3L776 400.3L780 398.5L784 396.8L788 395.4L792 394.2L796 393.2L800 392.6L804 392.1L808 392L812 392L816 392L820 392L824 392L828 392L832 392L836 392L840 392L844 392L848 392L852 392L856 392L860 392L864 392L868 392L872 392L876 392L880 392L884 392L888 392L892 392L896 392L900 392L904 392L908 392L912 392L916 392L920 392L924 392L928 392L932 392L936 392L940 392L944 392L948 392L952 392L956 392L960 392L964 392L968 392L972 392L976 392L980 392L984 392L988 392L992 392L996 392L1000 392L1004 392L1008 392L1012 392L1016 392L1020 392L1024 392" stroke="#7f9345" stroke-width="4" fill="none"/><path d="M850.9 446A7.3 5.8 -17 1 0 864.9 441.7A7.3 5.8 -17 1 0 850.9 446ZM876.4 440A6.3 3.2 -11.1 1 0 888.8 437.5A6.3 3.2 -11.1 1 0 876.4 440ZM144.5 425.9A4.5 4.6 -14.6 1 0 153.2 423.6A4.5 4.6 -14.6 1 0 144.5 425.9ZM160.1 414.1A11.8 7.1 5.9 1 0 183.5 416.5A11.8 7.1 5.9 1 0 160.1 414.1ZM466.1 432A6.6 7.6 -14.4 1 0 478.9 428.7A6.6 7.6 -14.4 1 0 466.1 432ZM604.5 445.7A6.8 6.1 -1.4 1 0 618 445.4A6.8 6.1 -1.4 1 0 604.5 445.7ZM542.3 466.9A11.6 6 -12.6 1 0 564.9 461.9A11.6 6 -12.6 1 0 542.3 466.9ZM1009.1 460.9A11.1 3.5 15.1 1 0 1030.5 466.7A11.1 3.5 15.1 1 0 1009.1 460.9ZM427.5 453.3A11 7.8 -2.8 1 0 449.5 452.2A11 7.8 -2.8 1 0 427.5 453.3ZM74.2 417A7.7 6.2 7.8 1 0 89.4 419.1A7.7 6.2 7.8 1 0 74.2 417ZM488 455.5A7.4 4.5 5.9 1 0 502.7 457A7.4 4.5 5.9 1 0 488 455.5ZM122.6 461.4A6.7 7.7 -8.1 1 0 135.8 459.6A6.7 7.7 -8.1 1 0 122.6 461.4ZM152.2 453.1A5.3 5.2 -14.1 1 0 162.5 450.5A5.3 5.2 -14.1 1 0 152.2 453.1ZM501.8 443.1A8.2 5 -17.1 1 0 517.5 438.3A8.2 5 -17.1 1 0 501.8 443.1ZM348.7 441.2A5.1 3.2 10.1 1 0 358.8 443A5.1 3.2 10.1 1 0 348.7 441.2ZM410.1 462.3A12.2 4.7 0.1 1 0 434.6 462.3A12.2 4.7 0.1 1 0 410.1 462.3ZM142 462A5.5 3.9 0.2 1 0 153 462A5.5 3.9 0.2 1 0 142 462Z" fill="#9c8a74" fill-opacity=".55"/><path d="M134.9 377.6L134.3 381.7L135.2 385.7L137.2 389.8M134.3 377.6L135.8 380.2L138.3 383.3L141.7 385.7M137.2 377.6L135.5 380.3L133.7 383.3L132.8 387.4M423.1 394L429.7 398.8L433.5 403.6L439 410.6M425.6 394L430.4 399.8L434.4 406.4L437.3 411.8M423 394L419.4 399.8L413.9 405.5L406 410.2M424.7 394L427.4 401.5L431.6 407.2L437.9 413.4M425.4 394L430.5 400.3L432.4 405.7L433.3 411.9M425.8 394L421.1 402L418.1 408.1L414.9 413.8M422.4 394L426.8 398.4L432.7 401.5L441.5 403.5M471.3 394L469.8 394.9L467.7 395.8L465.8 396.7M473.9 394L472.8 396L472.5 397.9L472.6 400.1M472.2 394L472.5 395.9L473.2 398.1L473.3 399.9" stroke="#caa47a" stroke-opacity=".55" stroke-width="1.4" fill="none" stroke-linecap="round"/><path d="M472 401Q478 408 472 411Q466 408 472 401Z" fill="#e9d6b0"/><path d="M56.3 401.5q4 -4 8 0t8 0t8 0" stroke="#d98b8b" stroke-width="2.4" fill="none" stroke-linecap="round"/><path d="M302.5 402.7q4 -4 8 0t8 0t8 0" stroke="#d98b8b" stroke-width="2.4" fill="none" stroke-linecap="round"/><path d="M671.6 421.9L673.2 422.7L674.8 423.4L676.4 424.1L678 424.8L679.6 425.4L681.2 426L682.8 426.6L684.4 427.1L686 427.6L687.6 428.1L689.2 428.5L690.8 428.9L692.4 429.2L694 429.5L695.6 429.8L697.2 430L698.8 430.2L700.4 430.3L702 430.4L703.6 430.4L705.2 430.4L706.8 430.3L708.4 430.2L710 430.1L711.6 429.9L713.2 429.7L714.8 429.4L716.4 429.1L718 428.7L719.6 428.3L721.2 427.9L722.8 427.4L724.4 426.9L726 426.3L727.6 425.7L729.2 425.1L730.8 424.4L732.4 423.8L734 423L736.4 421.9Z" fill="#4f8fb8" fill-opacity="0.9"/><path d="M671.6 421.9H736.4" stroke="#bfe3f2" stroke-width="2"/>
<path class="rn a" d="M149.5 12.4l-3 14M765.3 190.3l-3 14M933.3 221l-3 14M550 330.6l-3 14M591 155.9l-3 14M206.1 299.2l-3 14M843 219.6l-3 14M133.8 66.3l-3 14M610.7 272.2l-3 14M5.3 269.6l-3 14M39.9 335.7l-3 14M207.5 251.6l-3 14M219.2 110.8l-3 14M460.4 116.6l-3 14M156 17.1l-3 14M295.7 196.7l-3 14M150.5 8.1l-3 14M394.6 333.8l-3 14M791.6 199l-3 14M317.1 57.9l-3 14M826.6 309.6l-3 14M918 5.8l-3 14M675.8 94.5l-3 14M523.5 149.6l-3 14M592.8 315.1l-3 14M1057.1 134.2l-3 14M881.7 37l-3 14M193.5 351.5l-3 14M531.4 92.5l-3 14M352.1 350.3l-3 14M395.1 216.9l-3 14M581.7 115.3l-3 14M371.5 114.6l-3 14M767.4 333.5l-3 14M259.2 246.7l-3 14M414.7 236.2l-3 14M605.3 134.9l-3 14M968.8 248.8l-3 14M492.7 41.2l-3 14M717.7 161.3l-3 14M971.7 110.8l-3 14" stroke="#ffffff" stroke-opacity=".55" stroke-width="1.3" stroke-linecap="round"/><path class="rn b" d="M3.4 74l-3 14M597.2 151.8l-3 14M454.5 342.3l-3 14M851.8 276.5l-3 14M812 104.6l-3 14M534.6 69.5l-3 14M868.7 139.3l-3 14M289.4 9.6l-3 14M963.4 39.2l-3 14M841.4 322.3l-3 14M912.6 22.3l-3 14M519.6 91.8l-3 14M100.1 216l-3 14M364.4 44.5l-3 14M232.8 302.2l-3 14M582.2 71.5l-3 14M95.3 160l-3 14M929.3 147.6l-3 14M941.1 214.5l-3 14M675.2 45.9l-3 14M117.3 349.8l-3 14M40.2 250.6l-3 14M13.5 335.8l-3 14M563.9 312.4l-3 14M519.2 324.3l-3 14M727.2 130.7l-3 14M410.6 117.8l-3 14M422.2 72.5l-3 14M655.2 61.5l-3 14M667.5 6.9l-3 14M493.5 87.1l-3 14M222.2 335l-3 14M725.4 274.7l-3 14M817.7 138.6l-3 14M754.5 286.3l-3 14M313.2 158.7l-3 14M167.7 313.2l-3 14M109.1 160l-3 14M606.8 307.9l-3 14M671.4 163.1l-3 14M825.1 274.6l-3 14" stroke="#ffffff" stroke-opacity=".55" stroke-width="1.3" stroke-linecap="round"/>
<g class="mk"><path d="M465 329.2L479 329.2L472 340.2Z" fill="#f4c430" stroke="#16211a" stroke-width="1.5" stroke-linejoin="round"/></g>
<rect x="0" y="470" width="1024" height="96" fill="#16211a"/><rect x="0" y="470" width="1024" height="4" fill="#5ea3d6"/><path transform="translate(28 492) scale(3)" fill="#a8b8a4" d="M1 0h3v1h-3zM6 0h4v1h-4zM13 0h3v1h-3zM18 0h1v1h-1zM22 0h1v1h-1zM34 0h4v1h-4zM41 0h3v1h-3zM46 0h1v1h-1zM50 0h1v1h-1zM59 0h1v1h-1zM73 0h3v1h-3zM83 0h3v1h-3zM89 0h3v1h-3zM94 0h5v1h-5zM105 0h3v1h-3zM111 0h3v1h-3zM117 0h3v1h-3zM124 0h2v1h-2zM0 1h1v1h-1zM4 1h1v1h-1zM6 1h1v1h-1zM10 1h1v1h-1zM12 1h1v1h-1zM16 1h1v1h-1zM18 1h1v1h-1zM22 1h1v1h-1zM34 1h1v1h-1zM38 1h1v1h-1zM40 1h1v1h-1zM44 1h1v1h-1zM46 1h1v1h-1zM50 1h1v1h-1zM58 1h2v1h-2zM72 1h1v1h-1zM76 1h1v1h-1zM82 1h1v1h-1zM86 1h1v1h-1zM88 1h1v1h-1zM92 1h1v1h-1zM96 1h1v1h-1zM104 1h1v1h-1zM108 1h1v1h-1zM110 1h1v1h-1zM114 1h1v1h-1zM116 1h1v1h-1zM120 1h1v1h-1zM123 1h1v1h-1zM0 2h1v1h-1zM6 2h1v1h-1zM10 2h1v1h-1zM12 2h1v1h-1zM16 2h1v1h-1zM18 2h1v1h-1zM22 2h1v1h-1zM34 2h1v1h-1zM38 2h1v1h-1zM40 2h1v1h-1zM44 2h1v1h-1zM47 2h1v1h-1zM49 2h1v1h-1zM57 2h1v1h-1zM59 2h1v1h-1zM76 2h1v1h-1zM82 2h1v1h-1zM86 2h1v1h-1zM88 2h1v1h-1zM96 2h1v1h-1zM108 2h1v1h-1zM110 2h1v1h-1zM113 2h2v1h-2zM120 2h1v1h-1zM122 2h1v1h-1zM0 3h1v1h-1zM2 3h3v1h-3zM6 3h4v1h-4zM12 3h1v1h-1zM16 3h1v1h-1zM18 3h1v1h-1zM20 3h1v1h-1zM22 3h1v1h-1zM28 3h1v1h-1zM34 3h1v1h-1zM38 3h1v1h-1zM40 3h5v1h-5zM48 3h1v1h-1zM56 3h1v1h-1zM59 3h1v1h-1zM66 3h1v1h-1zM75 3h1v1h-1zM82 3h1v1h-1zM86 3h1v1h-1zM88 3h1v1h-1zM96 3h1v1h-1zM107 3h1v1h-1zM110 3h1v1h-1zM112 3h1v1h-1zM114 3h1v1h-1zM119 3h1v1h-1zM122 3h4v1h-4zM0 4h1v1h-1zM4 4h1v1h-1zM6 4h1v1h-1zM8 4h1v1h-1zM12 4h1v1h-1zM16 4h1v1h-1zM18 4h1v1h-1zM20 4h1v1h-1zM22 4h1v1h-1zM34 4h1v1h-1zM38 4h1v1h-1zM40 4h1v1h-1zM44 4h1v1h-1zM48 4h1v1h-1zM56 4h5v1h-5zM74 4h1v1h-1zM82 4h1v1h-1zM86 4h1v1h-1zM88 4h1v1h-1zM96 4h1v1h-1zM106 4h1v1h-1zM110 4h2v1h-2zM114 4h1v1h-1zM118 4h1v1h-1zM122 4h1v1h-1zM126 4h1v1h-1zM0 5h1v1h-1zM4 5h1v1h-1zM6 5h1v1h-1zM9 5h1v1h-1zM12 5h1v1h-1zM16 5h1v1h-1zM18 5h1v1h-1zM20 5h1v1h-1zM22 5h1v1h-1zM34 5h1v1h-1zM38 5h1v1h-1zM40 5h1v1h-1zM44 5h1v1h-1zM48 5h1v1h-1zM59 5h1v1h-1zM73 5h1v1h-1zM82 5h1v1h-1zM86 5h1v1h-1zM88 5h1v1h-1zM92 5h1v1h-1zM96 5h1v1h-1zM105 5h1v1h-1zM110 5h1v1h-1zM114 5h1v1h-1zM117 5h1v1h-1zM122 5h1v1h-1zM126 5h1v1h-1zM1 6h4v1h-4zM6 6h1v1h-1zM10 6h1v1h-1zM13 6h3v1h-3zM19 6h1v1h-1zM21 6h1v1h-1zM34 6h4v1h-4zM40 6h1v1h-1zM44 6h1v1h-1zM48 6h1v1h-1zM59 6h1v1h-1zM72 6h5v1h-5zM83 6h3v1h-3zM89 6h3v1h-3zM96 6h1v1h-1zM104 6h5v1h-5zM111 6h3v1h-3zM116 6h5v1h-5zM123 6h3v1h-3z"/><path transform="translate(663 492) scale(3)" fill="#a8b8a4" d="M0 0h4v1h-4zM7 0h3v1h-3zM13 0h3v1h-3zM18 0h1v1h-1zM22 0h1v1h-1zM30 0h1v1h-1zM35 0h3v1h-3zM45 0h1v1h-1zM52 0h1v1h-1zM56 0h1v1h-1zM58 0h1v1h-1zM62 0h1v1h-1zM75 0h3v1h-3zM81 0h3v1h-3zM87 0h1v1h-1zM94 0h1v1h-1zM98 0h1v1h-1zM102 0h5v1h-5zM109 0h1v1h-1zM0 1h1v1h-1zM4 1h1v1h-1zM6 1h1v1h-1zM10 1h1v1h-1zM14 1h1v1h-1zM18 1h1v1h-1zM22 1h1v1h-1zM29 1h2v1h-2zM34 1h1v1h-1zM38 1h1v1h-1zM44 1h2v1h-2zM52 1h2v1h-2zM55 1h2v1h-2zM58 1h2v1h-2zM61 1h2v1h-2zM74 1h1v1h-1zM78 1h1v1h-1zM80 1h1v1h-1zM84 1h1v1h-1zM86 1h1v1h-1zM88 1h1v1h-1zM94 1h1v1h-1zM97 1h2v1h-2zM102 1h1v1h-1zM108 1h1v1h-1zM110 1h1v1h-1zM0 2h1v1h-1zM4 2h1v1h-1zM6 2h1v1h-1zM10 2h1v1h-1zM14 2h1v1h-1zM18 2h2v1h-2zM22 2h1v1h-1zM30 2h1v1h-1zM34 2h1v1h-1zM37 2h2v1h-2zM43 2h1v1h-1zM45 2h1v1h-1zM52 2h1v1h-1zM54 2h1v1h-1zM56 2h1v1h-1zM58 2h1v1h-1zM60 2h1v1h-1zM62 2h1v1h-1zM78 2h1v1h-1zM80 2h1v1h-1zM83 2h2v1h-2zM87 2h1v1h-1zM93 2h1v1h-1zM98 2h1v1h-1zM102 2h4v1h-4zM109 2h1v1h-1zM0 3h4v1h-4zM6 3h5v1h-5zM14 3h1v1h-1zM18 3h1v1h-1zM20 3h1v1h-1zM22 3h1v1h-1zM30 3h1v1h-1zM34 3h1v1h-1zM36 3h1v1h-1zM38 3h1v1h-1zM42 3h1v1h-1zM45 3h1v1h-1zM52 3h1v1h-1zM54 3h1v1h-1zM56 3h1v1h-1zM58 3h1v1h-1zM60 3h1v1h-1zM62 3h1v1h-1zM68 3h1v1h-1zM77 3h1v1h-1zM80 3h1v1h-1zM82 3h1v1h-1zM84 3h1v1h-1zM92 3h1v1h-1zM98 3h1v1h-1zM106 3h1v1h-1zM0 4h1v1h-1zM2 4h1v1h-1zM6 4h1v1h-1zM10 4h1v1h-1zM14 4h1v1h-1zM18 4h1v1h-1zM21 4h2v1h-2zM30 4h1v1h-1zM34 4h2v1h-2zM38 4h1v1h-1zM42 4h5v1h-5zM52 4h1v1h-1zM56 4h1v1h-1zM58 4h1v1h-1zM62 4h1v1h-1zM76 4h1v1h-1zM80 4h2v1h-2zM84 4h1v1h-1zM91 4h1v1h-1zM98 4h1v1h-1zM106 4h1v1h-1zM0 5h1v1h-1zM3 5h1v1h-1zM6 5h1v1h-1zM10 5h1v1h-1zM14 5h1v1h-1zM18 5h1v1h-1zM22 5h1v1h-1zM30 5h1v1h-1zM34 5h1v1h-1zM38 5h1v1h-1zM45 5h1v1h-1zM52 5h1v1h-1zM56 5h1v1h-1zM58 5h1v1h-1zM62 5h1v1h-1zM75 5h1v1h-1zM80 5h1v1h-1zM84 5h1v1h-1zM90 5h1v1h-1zM98 5h1v1h-1zM102 5h1v1h-1zM106 5h1v1h-1zM0 6h1v1h-1zM4 6h1v1h-1zM6 6h1v1h-1zM10 6h1v1h-1zM13 6h3v1h-3zM18 6h1v1h-1zM22 6h1v1h-1zM29 6h3v1h-3zM35 6h3v1h-3zM40 6h1v1h-1zM45 6h1v1h-1zM52 6h1v1h-1zM56 6h1v1h-1zM58 6h1v1h-1zM62 6h1v1h-1zM74 6h5v1h-5zM81 6h3v1h-3zM90 6h1v1h-1zM97 6h3v1h-3zM103 6h3v1h-3z"/><path transform="translate(28 520) scale(4)" fill="#f3efe2" d="M0 0h5v1h-5zM6 0h1v1h-1zM10 0h1v1h-1zM12 0h1v1h-1zM19 0h3v1h-3zM24 0h4v1h-4zM34 0h4v1h-4zM40 0h1v1h-1zM44 0h1v1h-1zM46 0h1v1h-1zM52 0h4v1h-4zM59 0h4v1h-4zM69 0h3v1h-3zM74 0h1v1h-1zM78 0h1v1h-1zM84 0h5v1h-5zM90 0h1v1h-1zM94 0h1v1h-1zM96 0h5v1h-5zM106 0h1v1h-1zM110 0h1v1h-1zM113 0h3v1h-3zM118 0h4v1h-4zM124 0h4v1h-4zM130 0h1v1h-1zM136 0h5v1h-5zM147 0h3v1h-3zM152 0h5v1h-5zM162 0h5v1h-5zM168 0h1v1h-1zM172 0h1v1h-1zM174 0h5v1h-5zM185 0h3v1h-3zM191 0h3v1h-3zM196 0h4v1h-4zM202 0h4v1h-4zM208 0h5v1h-5zM214 0h1v1h-1zM218 0h1v1h-1zM2 1h1v1h-1zM6 1h1v1h-1zM10 1h1v1h-1zM12 1h1v1h-1zM20 1h1v1h-1zM24 1h1v1h-1zM28 1h1v1h-1zM34 1h1v1h-1zM38 1h1v1h-1zM40 1h1v1h-1zM44 1h1v1h-1zM46 1h1v1h-1zM52 1h1v1h-1zM56 1h1v1h-1zM58 1h1v1h-1zM70 1h1v1h-1zM74 1h1v1h-1zM78 1h1v1h-1zM86 1h1v1h-1zM90 1h1v1h-1zM94 1h1v1h-1zM96 1h1v1h-1zM106 1h2v1h-2zM109 1h2v1h-2zM114 1h1v1h-1zM118 1h1v1h-1zM122 1h1v1h-1zM124 1h1v1h-1zM128 1h1v1h-1zM130 1h1v1h-1zM136 1h1v1h-1zM146 1h1v1h-1zM150 1h1v1h-1zM152 1h1v1h-1zM164 1h1v1h-1zM168 1h1v1h-1zM172 1h1v1h-1zM174 1h1v1h-1zM184 1h1v1h-1zM188 1h1v1h-1zM190 1h1v1h-1zM194 1h1v1h-1zM196 1h1v1h-1zM200 1h1v1h-1zM202 1h1v1h-1zM206 1h1v1h-1zM208 1h1v1h-1zM214 1h1v1h-1zM218 1h1v1h-1zM2 2h1v1h-1zM6 2h1v1h-1zM10 2h1v1h-1zM12 2h1v1h-1zM20 2h1v1h-1zM24 2h1v1h-1zM28 2h1v1h-1zM34 2h1v1h-1zM38 2h1v1h-1zM40 2h1v1h-1zM44 2h1v1h-1zM46 2h1v1h-1zM52 2h1v1h-1zM56 2h1v1h-1zM58 2h1v1h-1zM70 2h1v1h-1zM74 2h2v1h-2zM78 2h1v1h-1zM86 2h1v1h-1zM90 2h1v1h-1zM94 2h1v1h-1zM96 2h1v1h-1zM106 2h1v1h-1zM108 2h1v1h-1zM110 2h1v1h-1zM114 2h1v1h-1zM118 2h1v1h-1zM122 2h1v1h-1zM124 2h1v1h-1zM128 2h1v1h-1zM130 2h1v1h-1zM136 2h1v1h-1zM146 2h1v1h-1zM150 2h1v1h-1zM152 2h1v1h-1zM164 2h1v1h-1zM168 2h1v1h-1zM172 2h1v1h-1zM174 2h1v1h-1zM184 2h1v1h-1zM190 2h1v1h-1zM194 2h1v1h-1zM196 2h1v1h-1zM200 2h1v1h-1zM202 2h1v1h-1zM206 2h1v1h-1zM208 2h1v1h-1zM214 2h2v1h-2zM218 2h1v1h-1zM2 3h1v1h-1zM6 3h1v1h-1zM10 3h1v1h-1zM12 3h1v1h-1zM20 3h1v1h-1zM24 3h4v1h-4zM34 3h4v1h-4zM40 3h1v1h-1zM44 3h1v1h-1zM46 3h1v1h-1zM52 3h4v1h-4zM59 3h3v1h-3zM70 3h1v1h-1zM74 3h1v1h-1zM76 3h1v1h-1zM78 3h1v1h-1zM86 3h1v1h-1zM90 3h5v1h-5zM96 3h4v1h-4zM106 3h1v1h-1zM108 3h1v1h-1zM110 3h1v1h-1zM114 3h1v1h-1zM118 3h1v1h-1zM122 3h1v1h-1zM124 3h1v1h-1zM128 3h1v1h-1zM130 3h1v1h-1zM136 3h4v1h-4zM146 3h1v1h-1zM150 3h1v1h-1zM152 3h4v1h-4zM164 3h1v1h-1zM168 3h5v1h-5zM174 3h4v1h-4zM184 3h1v1h-1zM186 3h3v1h-3zM190 3h5v1h-5zM196 3h4v1h-4zM202 3h1v1h-1zM206 3h1v1h-1zM208 3h4v1h-4zM214 3h1v1h-1zM216 3h1v1h-1zM218 3h1v1h-1zM2 4h1v1h-1zM6 4h1v1h-1zM10 4h1v1h-1zM12 4h1v1h-1zM20 4h1v1h-1zM24 4h1v1h-1zM34 4h1v1h-1zM38 4h1v1h-1zM40 4h1v1h-1zM44 4h1v1h-1zM46 4h1v1h-1zM52 4h1v1h-1zM56 4h1v1h-1zM62 4h1v1h-1zM70 4h1v1h-1zM74 4h1v1h-1zM77 4h2v1h-2zM86 4h1v1h-1zM90 4h1v1h-1zM94 4h1v1h-1zM96 4h1v1h-1zM106 4h1v1h-1zM110 4h1v1h-1zM114 4h1v1h-1zM118 4h1v1h-1zM122 4h1v1h-1zM124 4h1v1h-1zM128 4h1v1h-1zM130 4h1v1h-1zM136 4h1v1h-1zM146 4h1v1h-1zM150 4h1v1h-1zM152 4h1v1h-1zM164 4h1v1h-1zM168 4h1v1h-1zM172 4h1v1h-1zM174 4h1v1h-1zM184 4h1v1h-1zM188 4h1v1h-1zM190 4h1v1h-1zM194 4h1v1h-1zM196 4h1v1h-1zM198 4h1v1h-1zM202 4h1v1h-1zM206 4h1v1h-1zM208 4h1v1h-1zM214 4h1v1h-1zM217 4h2v1h-2zM2 5h1v1h-1zM6 5h1v1h-1zM10 5h1v1h-1zM12 5h1v1h-1zM20 5h1v1h-1zM24 5h1v1h-1zM34 5h1v1h-1zM38 5h1v1h-1zM40 5h1v1h-1zM44 5h1v1h-1zM46 5h1v1h-1zM52 5h1v1h-1zM56 5h1v1h-1zM62 5h1v1h-1zM70 5h1v1h-1zM74 5h1v1h-1zM78 5h1v1h-1zM86 5h1v1h-1zM90 5h1v1h-1zM94 5h1v1h-1zM96 5h1v1h-1zM106 5h1v1h-1zM110 5h1v1h-1zM114 5h1v1h-1zM118 5h1v1h-1zM122 5h1v1h-1zM124 5h1v1h-1zM128 5h1v1h-1zM130 5h1v1h-1zM136 5h1v1h-1zM146 5h1v1h-1zM150 5h1v1h-1zM152 5h1v1h-1zM164 5h1v1h-1zM168 5h1v1h-1zM172 5h1v1h-1zM174 5h1v1h-1zM184 5h1v1h-1zM188 5h1v1h-1zM190 5h1v1h-1zM194 5h1v1h-1zM196 5h1v1h-1zM199 5h1v1h-1zM202 5h1v1h-1zM206 5h1v1h-1zM208 5h1v1h-1zM214 5h1v1h-1zM218 5h1v1h-1zM2 6h1v1h-1zM7 6h3v1h-3zM12 6h5v1h-5zM19 6h3v1h-3zM24 6h1v1h-1zM34 6h4v1h-4zM41 6h3v1h-3zM46 6h5v1h-5zM52 6h4v1h-4zM58 6h4v1h-4zM69 6h3v1h-3zM74 6h1v1h-1zM78 6h1v1h-1zM86 6h1v1h-1zM90 6h1v1h-1zM94 6h1v1h-1zM96 6h5v1h-5zM106 6h1v1h-1zM110 6h1v1h-1zM113 6h3v1h-3zM118 6h4v1h-4zM124 6h4v1h-4zM130 6h5v1h-5zM136 6h5v1h-5zM147 6h3v1h-3zM152 6h1v1h-1zM164 6h1v1h-1zM168 6h1v1h-1zM172 6h1v1h-1zM174 6h5v1h-5zM185 6h4v1h-4zM190 6h1v1h-1zM194 6h1v1h-1zM196 6h1v1h-1zM200 6h1v1h-1zM202 6h4v1h-4zM208 6h5v1h-5zM214 6h1v1h-1zM218 6h1v1h-1z"/><rect x="972" y="542" width="4" height="6" fill="#f4c430"/><rect x="978" y="542" width="4" height="6" fill="#f4c430"/><rect x="984" y="542" width="4" height="6" fill="#f4c430"/><rect x="990" y="527.4" width="4" height="20.6" fill="#5ea3d6"/>
</svg>
